<svg width="685" height="455" viewBox="0 0 685 455" fill="none" xmlns="http://www.w3.org/2000/svg">
<path d="M9.54 14.984H8.304V7.1H9.54V14.984ZM6.672 13.532C5.424 13.112 4.512 12.284 4.032 11.216C3.552 12.368 2.64 13.292 1.344 13.724L0.696 12.764C2.412 12.188 3.384 10.772 3.384 9.32V8.924H1.032V7.928H6.96V8.924H4.644V9.32C4.644 10.712 5.628 12.02 7.296 12.56L6.672 13.532ZM9.852 16.712V17.72H2.46V14.264H3.708V16.712H9.852ZM21.6471 10.184V11.204H20.1111V14.924H18.8751V7.076H20.1111V10.184H21.6471ZM17.9751 12.704C16.5591 12.992 15.2991 13.076 12.9711 13.076H12.0951V7.976H16.9191V8.984H13.3311V12.056C15.3831 12.056 16.5471 11.996 17.8551 11.708L17.9751 12.704ZM14.4951 16.712H20.5431V17.72H13.2471V14.132H14.4951V16.712ZM34.6137 7.088V17.924H33.4377V7.088H34.6137ZM31.2417 7.328H32.3937V17.384H31.2417V11.9H30.0177V10.88H31.2417V7.328ZM26.8977 14.3C28.0497 14.288 29.0937 14.24 30.3777 14.012L30.4857 15.032C29.0337 15.284 27.8097 15.32 26.4537 15.32H25.7097V11.168H28.3497V9.224H25.6857V8.228H29.5377V12.164H26.8977V14.3ZM45.5808 12.74H44.4048V7.1H45.5808V12.74ZM41.0808 12.308H36.8448V7.712H38.0088V9.02H39.9288V7.7H41.0808V9.452H42.2688V7.292H43.4208V12.68H42.2688V10.448H41.0808V12.308ZM39.9288 9.956H38.0088V11.348H39.9288V9.956ZM45.9768 16.868V17.828H38.3688V15.02H44.3448V14.192H38.3448V13.22H45.5808V15.932H39.6048V16.868H45.9768ZM50.3198 6.824H51.2798L47.9438 18.56H46.9838L50.3198 6.824ZM61.1036 7.076V13.388H59.8676V10.724H57.9476V9.716H59.8676V7.076H61.1036ZM57.9596 13.112C56.7596 12.692 55.8956 11.852 55.4276 10.796C54.9476 11.96 54.0476 12.908 52.7516 13.352L52.1156 12.38C53.7956 11.804 54.7796 10.352 54.7796 8.888V8.708H52.4876V7.712H58.2836V8.708H56.0276V8.888C56.0276 10.232 56.9516 11.576 58.5596 12.152L57.9596 13.112ZM53.9876 13.88H61.1036V17.792H53.9876V13.88ZM55.1996 16.808H59.8916V14.864H55.1996V16.808ZM72.0587 12.08C70.2227 11.792 68.7947 10.88 68.0747 9.632C67.3547 10.892 65.9147 11.792 64.0787 12.08L63.5987 11.084C65.8067 10.76 67.4147 9.44 67.4147 8.012V7.436H68.7227V8.012C68.7227 9.428 70.3547 10.76 72.5387 11.084L72.0587 12.08ZM72.9587 14.108H68.6507V17.936H67.4147V14.108H63.1667V13.1H72.9587V14.108Z" fill="#202727"/>
<path d="M660.54 442.984H659.304V435.1H660.54V442.984ZM657.672 441.532C656.424 441.112 655.512 440.284 655.032 439.216C654.552 440.368 653.64 441.292 652.344 441.724L651.696 440.764C653.412 440.188 654.384 438.772 654.384 437.32V436.924H652.032V435.928H657.96V436.924H655.644V437.32C655.644 438.712 656.628 440.02 658.296 440.56L657.672 441.532ZM660.852 444.712V445.72H653.46V442.264H654.708V444.712H660.852ZM672.647 438.184V439.204H671.111V442.924H669.875V435.076H671.111V438.184H672.647ZM668.975 440.704C667.559 440.992 666.299 441.076 663.971 441.076H663.095V435.976H667.919V436.984H664.331V440.056C666.383 440.056 667.547 439.996 668.855 439.708L668.975 440.704ZM665.495 444.712H671.543V445.72H664.247V442.132H665.495V444.712ZM682.618 440.584H681.382V435.076H682.618V440.584ZM679.582 437.884C679.582 439.312 678.37 440.32 676.726 440.32C675.106 440.32 673.894 439.312 673.894 437.884C673.894 436.444 675.106 435.436 676.726 435.436C678.37 435.436 679.582 436.444 679.582 437.884ZM675.094 437.884C675.094 438.748 675.802 439.312 676.726 439.312C677.674 439.312 678.382 438.748 678.382 437.884C678.382 437.02 677.674 436.456 676.726 436.456C675.802 436.456 675.094 437.02 675.094 437.884ZM682.942 444.82V445.792H675.538V442.948H681.394V442.048H675.514V441.076H682.618V443.86H676.75V444.82H682.942Z" fill="#202727"/>
<path d="M86.47 439H81.47V438.36L83.96 435.86C84.3 435.52 84.62 435.18 84.88 434.77C85.38 433.87 85.44 432.47 84.02 432.47C83.23 432.47 82.64 433.05 82.7 433.84L81.6 433.64C81.79 432.32 82.71 431.53 84.08 431.53C85.32 431.53 86.34 432.27 86.34 433.61C86.34 434.73 85.57 435.52 84.83 436.26L82.95 438.16C83.26 438.08 83.59 438.02 83.91 438.02H86.47V439ZM92.627 435.31C92.627 437.07 91.987 439.08 89.927 439.08C87.867 439.08 87.237 437.07 87.237 435.31C87.237 433.55 87.867 431.53 89.927 431.53C92.017 431.53 92.627 433.61 92.627 435.31ZM91.487 435.31C91.487 434.28 91.307 432.46 89.927 432.46C88.547 432.46 88.367 434.28 88.367 435.31C88.367 436.34 88.557 438.16 89.927 438.16C91.307 438.16 91.487 436.34 91.487 435.31ZM98.3841 439H93.3841V438.36L95.8741 435.86C96.2141 435.52 96.5341 435.18 96.7941 434.77C97.2941 433.87 97.3541 432.47 95.9341 432.47C95.1441 432.47 94.5541 433.05 94.6141 433.84L93.5141 433.64C93.7041 432.32 94.6241 431.53 95.9941 431.53C97.2341 431.53 98.2541 432.27 98.2541 433.61C98.2541 434.73 97.4841 435.52 96.7441 436.26L94.8641 438.16C95.1741 438.08 95.5041 438.02 95.8241 438.02H98.3841V439ZM100.301 436.74C100.391 437.5 101.101 438.15 101.861 438.15C102.611 438.15 103.271 437.65 103.271 436.88C103.271 435.75 102.381 435.62 101.481 435.62V434.82C102.311 434.82 103.141 434.6 103.141 433.62C103.141 432.91 102.691 432.47 101.961 432.47C101.201 432.47 100.581 433.05 100.641 433.84L99.5511 433.65C99.7411 432.34 100.651 431.53 102.021 431.53C103.141 431.53 104.211 432.18 104.211 433.43C104.211 434.28 103.841 434.84 102.991 435.11C103.871 435.36 104.371 435.92 104.371 436.85C104.371 438.26 103.241 439.09 101.871 439.09C100.521 439.09 99.7311 438.48 99.3311 437.14L100.301 436.74ZM86.67 448.31C86.67 450.07 86.03 452.08 83.97 452.08C81.91 452.08 81.28 450.07 81.28 448.31C81.28 446.55 81.91 444.53 83.97 444.53C86.06 444.53 86.67 446.61 86.67 448.31ZM85.53 448.31C85.53 447.28 85.35 445.46 83.97 445.46C82.59 445.46 82.41 447.28 82.41 448.31C82.41 449.34 82.6 451.16 83.97 451.16C85.35 451.16 85.53 449.34 85.53 448.31ZM92.427 452H87.427V451.36L89.917 448.86C90.257 448.52 90.577 448.18 90.837 447.77C91.337 446.87 91.397 445.47 89.977 445.47C89.187 445.47 88.597 446.05 88.657 446.84L87.557 446.64C87.747 445.32 88.667 444.53 90.037 444.53C91.277 444.53 92.297 445.27 92.297 446.61C92.297 447.73 91.527 448.52 90.787 449.26L88.907 451.16C89.217 451.08 89.547 451.02 89.867 451.02H92.427V452ZM98.5841 448.31C98.5841 450.07 97.9441 452.08 95.8841 452.08C93.8241 452.08 93.1941 450.07 93.1941 448.31C93.1941 446.55 93.8241 444.53 95.8841 444.53C97.9741 444.53 98.5841 446.61 98.5841 448.31ZM97.4441 448.31C97.4441 447.28 97.2641 445.46 95.8841 445.46C94.5041 445.46 94.3241 447.28 94.3241 448.31C94.3241 449.34 94.5141 451.16 95.8841 451.16C97.2641 451.16 97.4441 449.34 97.4441 448.31ZM100.451 447.04L99.8411 446.3L101.841 444.59H102.741V451.04H104.131V452H100.101V451.04H101.641V446.53C101.641 446.37 101.641 446.2 101.651 446.03L100.451 447.04Z" fill="#4E5F5F"/>
<path d="M8.58 377.04L7.97 376.3L9.97 374.59H10.87V381.04H12.26V382H8.23V381.04H9.77V376.53C9.77 376.37 9.77 376.2 9.78 376.03L8.58 377.04ZM14.537 377.04L13.927 376.3L15.927 374.59H16.827V381.04H18.217V382H14.187V381.04H15.727V376.53C15.727 376.37 15.727 376.2 15.737 376.03L14.537 377.04ZM24.6941 380.13H23.6741V382H22.7141V380.13H19.0941V379.33L22.6441 374.6H23.6741V379.27H24.6941V380.13ZM22.7141 379.27V376.57C22.7141 376.35 22.7341 376.12 22.7641 375.86L20.2841 379.27H22.7141ZM30.5411 378.31C30.5411 380.07 29.9011 382.08 27.8411 382.08C25.7811 382.08 25.1511 380.07 25.1511 378.31C25.1511 376.55 25.7811 374.53 27.8411 374.53C29.9311 374.53 30.5411 376.61 30.5411 378.31ZM29.4011 378.31C29.4011 377.28 29.2211 375.46 27.8411 375.46C26.4611 375.46 26.2811 377.28 26.2811 378.31C26.2811 379.34 26.4711 381.16 27.8411 381.16C29.2211 381.16 29.4011 379.34 29.4011 378.31Z" fill="#4E5F5F"/>
<path d="M13.852 358.088V368.924H12.676V358.088H13.852ZM10.48 358.328H11.632V368.384H10.48V362.9H9.256V361.88H10.48V358.328ZM6.136 365.3C7.288 365.288 8.332 365.24 9.616 365.012L9.724 366.032C8.272 366.284 7.048 366.32 5.692 366.32H4.948V362.168H7.588V360.224H4.924V359.228H8.776V363.164H6.136V365.3ZM24.8191 363.74H23.6431V358.1H24.8191V363.74ZM20.3191 363.308H16.0831V358.712H17.2471V360.02H19.1671V358.7H20.3191V360.452H21.5071V358.292H22.6591V363.68H21.5071V361.448H20.3191V363.308ZM19.1671 360.956H17.2471V362.348H19.1671V360.956ZM25.2151 367.868V368.828H17.6071V366.02H23.5831V365.192H17.5831V364.22H24.8191V366.932H18.8431V367.868H25.2151ZM31.7781 359.132L28.7781 362.852C29.1861 362.624 29.6541 362.504 30.1221 362.504C31.7301 362.504 32.7501 363.62 32.7501 365.156C32.7501 366.884 31.3701 368.096 29.6541 368.096C27.8181 368.096 26.6541 366.896 26.6541 365.012C26.6541 364.064 27.1581 363.116 27.7101 362.372L30.1341 359.132H31.7781ZM29.6301 367.004C30.6261 367.004 31.4301 366.296 31.4301 365.252C31.4301 364.196 30.7341 363.512 29.6781 363.512C28.6701 363.512 27.9261 364.244 27.9261 365.228C27.9261 366.26 28.5261 367.004 29.6301 367.004Z" fill="#7E9595"/>
<path d="M8.58 298.04L7.97 297.3L9.97 295.59H10.87V302.04H12.26V303H8.23V302.04H9.77V297.53C9.77 297.37 9.77 297.2 9.78 297.03L8.58 298.04ZM14.387 300.74C14.477 301.5 15.187 302.15 15.947 302.15C16.697 302.15 17.357 301.65 17.357 300.88C17.357 299.75 16.467 299.62 15.567 299.62V298.82C16.397 298.82 17.227 298.6 17.227 297.62C17.227 296.91 16.777 296.47 16.047 296.47C15.287 296.47 14.667 297.05 14.727 297.84L13.637 297.65C13.827 296.34 14.737 295.53 16.107 295.53C17.227 295.53 18.297 296.18 18.297 297.43C18.297 298.28 17.927 298.84 17.077 299.11C17.957 299.36 18.457 299.92 18.457 300.85C18.457 302.26 17.327 303.09 15.957 303.09C14.607 303.09 13.817 302.48 13.417 301.14L14.387 300.74ZM20.3441 300.74C20.4341 301.5 21.1441 302.15 21.9041 302.15C22.6541 302.15 23.3141 301.65 23.3141 300.88C23.3141 299.75 22.4241 299.62 21.5241 299.62V298.82C22.3541 298.82 23.1841 298.6 23.1841 297.62C23.1841 296.91 22.7341 296.47 22.0041 296.47C21.2441 296.47 20.6241 297.05 20.6841 297.84L19.5941 297.65C19.7841 296.34 20.6941 295.53 22.0641 295.53C23.1841 295.53 24.2541 296.18 24.2541 297.43C24.2541 298.28 23.8841 298.84 23.0341 299.11C23.9141 299.36 24.4141 299.92 24.4141 300.85C24.4141 302.26 23.2841 303.09 21.9141 303.09C20.5641 303.09 19.7741 302.48 19.3741 301.14L20.3441 300.74ZM30.5411 299.31C30.5411 301.07 29.9011 303.08 27.8411 303.08C25.7811 303.08 25.1511 301.07 25.1511 299.31C25.1511 297.55 25.7811 295.53 27.8411 295.53C29.9311 295.53 30.5411 297.61 30.5411 299.31ZM29.4011 299.31C29.4011 298.28 29.2211 296.46 27.8411 296.46C26.4611 296.46 26.2811 298.28 26.2811 299.31C26.2811 300.34 26.4711 302.16 27.8411 302.16C29.2211 302.16 29.4011 300.34 29.4011 299.31Z" fill="#4E5F5F"/>
<path d="M13.852 279.088V289.924H12.676V279.088H13.852ZM10.48 279.328H11.632V289.384H10.48V283.9H9.256V282.88H10.48V279.328ZM6.136 286.3C7.288 286.288 8.332 286.24 9.616 286.012L9.724 287.032C8.272 287.284 7.048 287.32 5.692 287.32H4.948V283.168H7.588V281.224H4.924V280.228H8.776V284.164H6.136V286.3ZM24.8191 284.74H23.6431V279.1H24.8191V284.74ZM20.3191 284.308H16.0831V279.712H17.2471V281.02H19.1671V279.7H20.3191V281.452H21.5071V279.292H22.6591V284.68H21.5071V282.448H20.3191V284.308ZM19.1671 281.956H17.2471V283.348H19.1671V281.956ZM25.2151 288.868V289.828H17.6071V287.02H23.5831V286.192H17.5831V285.22H24.8191V287.932H18.8431V288.868H25.2151ZM32.7381 281.068L28.8381 289H27.3981L30.9741 281.98C31.0821 281.752 31.2261 281.536 31.3941 281.344H26.6541V280.132H32.7381V281.068Z" fill="#7E9595"/>
<path d="M8.58 219.04L7.97 218.3L9.97 216.59H10.87V223.04H12.26V224H8.23V223.04H9.77V218.53C9.77 218.37 9.77 218.2 9.78 218.03L8.58 219.04ZM14.097 222.45C14.517 222.85 15.117 223.14 15.707 223.14C16.677 223.14 17.247 222.44 17.247 221.53C17.247 220.62 16.667 220.14 15.747 220.14C15.357 220.14 14.977 220.22 14.607 220.33L13.927 220.14L14.527 216.61H18.107V217.62H15.297L14.997 219.34C15.317 219.27 15.657 219.23 15.977 219.23C17.327 219.23 18.347 220.01 18.347 221.47C18.347 223.03 17.217 224.08 15.637 224.08C15.067 224.08 14.407 223.91 13.937 223.56C13.777 223.46 13.647 223.36 13.527 223.25L14.097 222.45ZM24.3841 224H19.3841V223.36L21.8741 220.86C22.2141 220.52 22.5341 220.18 22.7941 219.77C23.2941 218.87 23.3541 217.47 21.9341 217.47C21.1441 217.47 20.5541 218.05 20.6141 218.84L19.5141 218.64C19.7041 217.32 20.6241 216.53 21.9941 216.53C23.2341 216.53 24.2541 217.27 24.2541 218.61C24.2541 219.73 23.4841 220.52 22.7441 221.26L20.8641 223.16C21.1741 223.08 21.5041 223.02 21.8241 223.02H24.3841V224ZM30.5411 220.31C30.5411 222.07 29.9011 224.08 27.8411 224.08C25.7811 224.08 25.1511 222.07 25.1511 220.31C25.1511 218.55 25.7811 216.53 27.8411 216.53C29.9311 216.53 30.5411 218.61 30.5411 220.31ZM29.4011 220.31C29.4011 219.28 29.2211 217.46 27.8411 217.46C26.4611 217.46 26.2811 219.28 26.2811 220.31C26.2811 221.34 26.4711 223.16 27.8411 223.16C29.2211 223.16 29.4011 221.34 29.4011 220.31Z" fill="#4E5F5F"/>
<path d="M13.852 200.088V210.924H12.676V200.088H13.852ZM10.48 200.328H11.632V210.384H10.48V204.9H9.256V203.88H10.48V200.328ZM6.136 207.3C7.288 207.288 8.332 207.24 9.616 207.012L9.724 208.032C8.272 208.284 7.048 208.32 5.692 208.32H4.948V204.168H7.588V202.224H4.924V201.228H8.776V205.164H6.136V207.3ZM24.8191 205.74H23.6431V200.1H24.8191V205.74ZM20.3191 205.308H16.0831V200.712H17.2471V202.02H19.1671V200.7H20.3191V202.452H21.5071V200.292H22.6591V205.68H21.5071V203.448H20.3191V205.308ZM19.1671 202.956H17.2471V204.348H19.1671V202.956ZM25.2151 209.868V210.828H17.6071V208.02H23.5831V207.192H17.5831V206.22H24.8191V208.932H18.8431V209.868H25.2151ZM31.0581 205.368C32.1021 205.692 32.6901 206.424 32.6901 207.528C32.6901 209.292 31.2141 210.096 29.6541 210.096C28.0221 210.096 26.6181 209.256 26.6181 207.528C26.6181 206.412 27.2061 205.692 28.2621 205.368C27.3741 205.032 26.9181 204.324 26.9181 203.388C26.9181 201.888 28.2381 201.036 29.6541 201.036C31.0701 201.036 32.3901 201.888 32.3901 203.388C32.3901 204.324 31.9341 205.032 31.0581 205.368ZM29.6541 202.044C28.8021 202.044 28.2021 202.56 28.2021 203.412C28.2021 204.348 28.7541 204.876 29.6541 204.876C30.5421 204.876 31.1061 204.336 31.1061 203.412C31.1061 202.536 30.4701 202.044 29.6541 202.044ZM29.6541 209.052C30.5781 209.052 31.3341 208.524 31.3341 207.504C31.3341 206.46 30.6141 205.932 29.6541 205.932C28.6941 205.932 27.9741 206.448 27.9741 207.504C27.9741 208.476 28.6821 209.052 29.6541 209.052Z" fill="#7E9595"/>
<path d="M8.58 140.04L7.97 139.3L9.97 137.59H10.87V144.04H12.26V145H8.23V144.04H9.77V139.53C9.77 139.37 9.77 139.2 9.78 139.03L8.58 140.04ZM18.507 138.39L15.257 145H14.057L17.037 139.15C17.127 138.96 17.247 138.78 17.387 138.62H13.437V137.61H18.507V138.39ZM20.4941 140.04L19.8841 139.3L21.8841 137.59H22.7841V144.04H24.1741V145H20.1441V144.04H21.6841V139.53C21.6841 139.37 21.6841 139.2 21.6941 139.03L20.4941 140.04ZM30.5411 141.31C30.5411 143.07 29.9011 145.08 27.8411 145.08C25.7811 145.08 25.1511 143.07 25.1511 141.31C25.1511 139.55 25.7811 137.53 27.8411 137.53C29.9311 137.53 30.5411 139.61 30.5411 141.31ZM29.4011 141.31C29.4011 140.28 29.2211 138.46 27.8411 138.46C26.4611 138.46 26.2811 140.28 26.2811 141.31C26.2811 142.34 26.4711 144.16 27.8411 144.16C29.2211 144.16 29.4011 142.34 29.4011 141.31Z" fill="#4E5F5F"/>
<path d="M13.852 121.088V131.924H12.676V121.088H13.852ZM10.48 121.328H11.632V131.384H10.48V125.9H9.256V124.88H10.48V121.328ZM6.136 128.3C7.288 128.288 8.332 128.24 9.616 128.012L9.724 129.032C8.272 129.284 7.048 129.32 5.692 129.32H4.948V125.168H7.588V123.224H4.924V122.228H8.776V126.164H6.136V128.3ZM24.8191 126.74H23.6431V121.1H24.8191V126.74ZM20.3191 126.308H16.0831V121.712H17.2471V123.02H19.1671V121.7H20.3191V123.452H21.5071V121.292H22.6591V126.68H21.5071V124.448H20.3191V126.308ZM19.1671 123.956H17.2471V125.348H19.1671V123.956ZM25.2151 130.868V131.828H17.6071V129.02H23.5831V128.192H17.5831V127.22H24.8191V129.932H18.8431V130.868H25.2151ZM27.5901 131L30.3141 127.52L30.7341 126.944C30.2781 127.268 29.7501 127.412 29.1861 127.412C27.7221 127.412 26.7141 126.356 26.7141 124.868C26.7141 123.2 28.0341 122.036 29.7021 122.036C31.4061 122.036 32.5941 123.152 32.5941 124.928C32.5941 126.02 32.1741 126.824 31.5741 127.7L29.2701 131H27.5901ZM28.0341 124.772C28.0341 125.78 28.6221 126.404 29.6421 126.404C30.6261 126.404 31.3221 125.744 31.3221 124.784C31.3221 123.812 30.6981 123.128 29.6781 123.128C28.7301 123.128 28.0341 123.788 28.0341 124.772Z" fill="#7E9595"/>
<path d="M8.58 61.04L7.97 60.3L9.97 58.59H10.87V65.04H12.26V66H8.23V65.04H9.77V60.53C9.77 60.37 9.77 60.2 9.78 60.03L8.58 61.04ZM14.217 66L16.487 63.1L16.837 62.62C16.457 62.89 16.017 63.01 15.547 63.01C14.327 63.01 13.487 62.13 13.487 60.89C13.487 59.5 14.587 58.53 15.977 58.53C17.397 58.53 18.387 59.46 18.387 60.94C18.387 61.85 18.037 62.52 17.537 63.25L15.617 66H14.217ZM14.587 60.81C14.587 61.65 15.077 62.17 15.927 62.17C16.747 62.17 17.327 61.62 17.327 60.82C17.327 60.01 16.807 59.44 15.957 59.44C15.167 59.44 14.587 59.99 14.587 60.81ZM24.5841 62.31C24.5841 64.07 23.9441 66.08 21.8841 66.08C19.8241 66.08 19.1941 64.07 19.1941 62.31C19.1941 60.55 19.8241 58.53 21.8841 58.53C23.9741 58.53 24.5841 60.61 24.5841 62.31ZM23.4441 62.31C23.4441 61.28 23.2641 59.46 21.8841 59.46C20.5041 59.46 20.3241 61.28 20.3241 62.31C20.3241 63.34 20.5141 65.16 21.8841 65.16C23.2641 65.16 23.4441 63.34 23.4441 62.31ZM30.5411 62.31C30.5411 64.07 29.9011 66.08 27.8411 66.08C25.7811 66.08 25.1511 64.07 25.1511 62.31C25.1511 60.55 25.7811 58.53 27.8411 58.53C29.9311 58.53 30.5411 60.61 30.5411 62.31ZM29.4011 62.31C29.4011 61.28 29.2211 59.46 27.8411 59.46C26.4611 59.46 26.2811 61.28 26.2811 62.31C26.2811 63.34 26.4711 65.16 27.8411 65.16C29.2211 65.16 29.4011 63.34 29.4011 62.31Z" fill="#4E5F5F"/>
<path d="M9.852 42.088V52.924H8.676V42.088H9.852ZM6.48 42.328H7.632V52.384H6.48V46.9H5.256V45.88H6.48V42.328ZM2.136 49.3C3.288 49.288 4.332 49.24 5.616 49.012L5.724 50.032C4.272 50.284 3.048 50.32 1.692 50.32H0.948V46.168H3.588V44.224H0.924V43.228H4.776V47.164H2.136V49.3ZM20.8191 47.74H19.6431V42.1H20.8191V47.74ZM16.3191 47.308H12.0831V42.712H13.2471V44.02H15.1671V42.7H16.3191V44.452H17.5071V42.292H18.6591V47.68H17.5071V45.448H16.3191V47.308ZM15.1671 44.956H13.2471V46.348H15.1671V44.956ZM21.2151 51.868V52.828H13.6071V50.02H19.5831V49.192H13.5831V48.22H20.8191V50.932H14.8431V51.868H21.2151ZM23.9741 46.048L23.2421 45.16L25.6421 43.108H26.7221V50.848H28.3901V52H23.5541V50.848H25.4021V45.436C25.4021 45.244 25.4021 45.04 25.4141 44.836L23.9741 46.048ZM36.0306 47.572C36.0306 49.684 35.2626 52.096 32.7906 52.096C30.3186 52.096 29.5626 49.684 29.5626 47.572C29.5626 45.46 30.3186 43.036 32.7906 43.036C35.2986 43.036 36.0306 45.532 36.0306 47.572ZM34.6626 47.572C34.6626 46.336 34.4466 44.152 32.7906 44.152C31.1346 44.152 30.9186 46.336 30.9186 47.572C30.9186 48.808 31.1466 50.992 32.7906 50.992C34.4466 50.992 34.6626 48.808 34.6626 47.572Z" fill="#7E9595"/>
<path d="M190.47 439H185.47V438.36L187.96 435.86C188.3 435.52 188.62 435.18 188.88 434.77C189.38 433.87 189.44 432.47 188.02 432.47C187.23 432.47 186.64 433.05 186.7 433.84L185.6 433.64C185.79 432.32 186.71 431.53 188.08 431.53C189.32 431.53 190.34 432.27 190.34 433.61C190.34 434.73 189.57 435.52 188.83 436.26L186.95 438.16C187.26 438.08 187.59 438.02 187.91 438.02H190.47V439ZM196.627 435.31C196.627 437.07 195.987 439.08 193.927 439.08C191.867 439.08 191.237 437.07 191.237 435.31C191.237 433.55 191.867 431.53 193.927 431.53C196.017 431.53 196.627 433.61 196.627 435.31ZM195.487 435.31C195.487 434.28 195.307 432.46 193.927 432.46C192.547 432.46 192.367 434.28 192.367 435.31C192.367 436.34 192.557 438.16 193.927 438.16C195.307 438.16 195.487 436.34 195.487 435.31ZM202.384 439H197.384V438.36L199.874 435.86C200.214 435.52 200.534 435.18 200.794 434.77C201.294 433.87 201.354 432.47 199.934 432.47C199.144 432.47 198.554 433.05 198.614 433.84L197.514 433.64C197.704 432.32 198.624 431.53 199.994 431.53C201.234 431.53 202.254 432.27 202.254 433.61C202.254 434.73 201.484 435.52 200.744 436.26L198.864 438.16C199.174 438.08 199.504 438.02 199.824 438.02H202.384V439ZM204.301 436.74C204.391 437.5 205.101 438.15 205.861 438.15C206.611 438.15 207.271 437.65 207.271 436.88C207.271 435.75 206.381 435.62 205.481 435.62V434.82C206.311 434.82 207.141 434.6 207.141 433.62C207.141 432.91 206.691 432.47 205.961 432.47C205.201 432.47 204.581 433.05 204.641 433.84L203.551 433.65C203.741 432.34 204.651 431.53 206.021 431.53C207.141 431.53 208.211 432.18 208.211 433.43C208.211 434.28 207.841 434.84 206.991 435.11C207.871 435.36 208.371 435.92 208.371 436.85C208.371 438.26 207.241 439.09 205.871 439.09C204.521 439.09 203.731 438.48 203.331 437.14L204.301 436.74ZM190.67 448.31C190.67 450.07 190.03 452.08 187.97 452.08C185.91 452.08 185.28 450.07 185.28 448.31C185.28 446.55 185.91 444.53 187.97 444.53C190.06 444.53 190.67 446.61 190.67 448.31ZM189.53 448.31C189.53 447.28 189.35 445.46 187.97 445.46C186.59 445.46 186.41 447.28 186.41 448.31C186.41 449.34 186.6 451.16 187.97 451.16C189.35 451.16 189.53 449.34 189.53 448.31ZM192.097 450.45C192.517 450.85 193.117 451.14 193.707 451.14C194.677 451.14 195.247 450.44 195.247 449.53C195.247 448.62 194.667 448.14 193.747 448.14C193.357 448.14 192.977 448.22 192.607 448.33L191.927 448.14L192.527 444.61H196.107V445.62H193.297L192.997 447.34C193.317 447.27 193.657 447.23 193.977 447.23C195.327 447.23 196.347 448.01 196.347 449.47C196.347 451.03 195.217 452.08 193.637 452.08C193.067 452.08 192.407 451.91 191.937 451.56C191.777 451.46 191.647 451.36 191.527 451.25L192.097 450.45ZM202.584 448.31C202.584 450.07 201.944 452.08 199.884 452.08C197.824 452.08 197.194 450.07 197.194 448.31C197.194 446.55 197.824 444.53 199.884 444.53C201.974 444.53 202.584 446.61 202.584 448.31ZM201.444 448.31C201.444 447.28 201.264 445.46 199.884 445.46C198.504 445.46 198.324 447.28 198.324 448.31C198.324 449.34 198.514 451.16 199.884 451.16C201.264 451.16 201.444 449.34 201.444 448.31ZM204.451 447.04L203.841 446.3L205.841 444.59H206.741V451.04H208.131V452H204.101V451.04H205.641V446.53C205.641 446.37 205.641 446.2 205.651 446.03L204.451 447.04Z" fill="#4E5F5F"/>
<path d="M294.47 439H289.47V438.36L291.96 435.86C292.3 435.52 292.62 435.18 292.88 434.77C293.38 433.87 293.44 432.47 292.02 432.47C291.23 432.47 290.64 433.05 290.7 433.84L289.6 433.64C289.79 432.32 290.71 431.53 292.08 431.53C293.32 431.53 294.34 432.27 294.34 433.61C294.34 434.73 293.57 435.52 292.83 436.26L290.95 438.16C291.26 438.08 291.59 438.02 291.91 438.02H294.47V439ZM300.627 435.31C300.627 437.07 299.987 439.08 297.927 439.08C295.867 439.08 295.237 437.07 295.237 435.31C295.237 433.55 295.867 431.53 297.927 431.53C300.017 431.53 300.627 433.61 300.627 435.31ZM299.487 435.31C299.487 434.28 299.307 432.46 297.927 432.46C296.547 432.46 296.367 434.28 296.367 435.31C296.367 436.34 296.557 438.16 297.927 438.16C299.307 438.16 299.487 436.34 299.487 435.31ZM306.384 439H301.384V438.36L303.874 435.86C304.214 435.52 304.534 435.18 304.794 434.77C305.294 433.87 305.354 432.47 303.934 432.47C303.144 432.47 302.554 433.05 302.614 433.84L301.514 433.64C301.704 432.32 302.624 431.53 303.994 431.53C305.234 431.53 306.254 432.27 306.254 433.61C306.254 434.73 305.484 435.52 304.744 436.26L302.864 438.16C303.174 438.08 303.504 438.02 303.824 438.02H306.384V439ZM308.301 436.74C308.391 437.5 309.101 438.15 309.861 438.15C310.611 438.15 311.271 437.65 311.271 436.88C311.271 435.75 310.381 435.62 309.481 435.62V434.82C310.311 434.82 311.141 434.6 311.141 433.62C311.141 432.91 310.691 432.47 309.961 432.47C309.201 432.47 308.581 433.05 308.641 433.84L307.551 433.65C307.741 432.34 308.651 431.53 310.021 431.53C311.141 431.53 312.211 432.18 312.211 433.43C312.211 434.28 311.841 434.84 310.991 435.11C311.871 435.36 312.371 435.92 312.371 436.85C312.371 438.26 311.241 439.09 309.871 439.09C308.521 439.09 307.731 438.48 307.331 437.14L308.301 436.74ZM294.67 448.31C294.67 450.07 294.03 452.08 291.97 452.08C289.91 452.08 289.28 450.07 289.28 448.31C289.28 446.55 289.91 444.53 291.97 444.53C294.06 444.53 294.67 446.61 294.67 448.31ZM293.53 448.31C293.53 447.28 293.35 445.46 291.97 445.46C290.59 445.46 290.41 447.28 290.41 448.31C290.41 449.34 290.6 451.16 291.97 451.16C293.35 451.16 293.53 449.34 293.53 448.31ZM296.217 452L298.487 449.1L298.837 448.62C298.457 448.89 298.017 449.01 297.547 449.01C296.327 449.01 295.487 448.13 295.487 446.89C295.487 445.5 296.587 444.53 297.977 444.53C299.397 444.53 300.387 445.46 300.387 446.94C300.387 447.85 300.037 448.52 299.537 449.25L297.617 452H296.217ZM296.587 446.81C296.587 447.65 297.077 448.17 297.927 448.17C298.747 448.17 299.327 447.62 299.327 446.82C299.327 446.01 298.807 445.44 297.957 445.44C297.167 445.44 296.587 445.99 296.587 446.81ZM306.584 448.31C306.584 450.07 305.944 452.08 303.884 452.08C301.824 452.08 301.194 450.07 301.194 448.31C301.194 446.55 301.824 444.53 303.884 444.53C305.974 444.53 306.584 446.61 306.584 448.31ZM305.444 448.31C305.444 447.28 305.264 445.46 303.884 445.46C302.504 445.46 302.324 447.28 302.324 448.31C302.324 449.34 302.514 451.16 303.884 451.16C305.264 451.16 305.444 449.34 305.444 448.31ZM308.451 447.04L307.841 446.3L309.841 444.59H310.741V451.04H312.131V452H308.101V451.04H309.641V446.53C309.641 446.37 309.641 446.2 309.651 446.03L308.451 447.04Z" fill="#4E5F5F"/>
<path d="M398.47 439H393.47V438.36L395.96 435.86C396.3 435.52 396.62 435.18 396.88 434.77C397.38 433.87 397.44 432.47 396.02 432.47C395.23 432.47 394.64 433.05 394.7 433.84L393.6 433.64C393.79 432.32 394.71 431.53 396.08 431.53C397.32 431.53 398.34 432.27 398.34 433.61C398.34 434.73 397.57 435.52 396.83 436.26L394.95 438.16C395.26 438.08 395.59 438.02 395.91 438.02H398.47V439ZM404.627 435.31C404.627 437.07 403.987 439.08 401.927 439.08C399.867 439.08 399.237 437.07 399.237 435.31C399.237 433.55 399.867 431.53 401.927 431.53C404.017 431.53 404.627 433.61 404.627 435.31ZM403.487 435.31C403.487 434.28 403.307 432.46 401.927 432.46C400.547 432.46 400.367 434.28 400.367 435.31C400.367 436.34 400.557 438.16 401.927 438.16C403.307 438.16 403.487 436.34 403.487 435.31ZM410.384 439H405.384V438.36L407.874 435.86C408.214 435.52 408.534 435.18 408.794 434.77C409.294 433.87 409.354 432.47 407.934 432.47C407.144 432.47 406.554 433.05 406.614 433.84L405.514 433.64C405.704 432.32 406.624 431.53 407.994 431.53C409.234 431.53 410.254 432.27 410.254 433.61C410.254 434.73 409.484 435.52 408.744 436.26L406.864 438.16C407.174 438.08 407.504 438.02 407.824 438.02H410.384V439ZM412.301 436.74C412.391 437.5 413.101 438.15 413.861 438.15C414.611 438.15 415.271 437.65 415.271 436.88C415.271 435.75 414.381 435.62 413.481 435.62V434.82C414.311 434.82 415.141 434.6 415.141 433.62C415.141 432.91 414.691 432.47 413.961 432.47C413.201 432.47 412.581 433.05 412.641 433.84L411.551 433.65C411.741 432.34 412.651 431.53 414.021 431.53C415.141 431.53 416.211 432.18 416.211 433.43C416.211 434.28 415.841 434.84 414.991 435.11C415.871 435.36 416.371 435.92 416.371 436.85C416.371 438.26 415.241 439.09 413.871 439.09C412.521 439.09 411.731 438.48 411.331 437.14L412.301 436.74ZM394.58 447.04L393.97 446.3L395.97 444.59H396.87V451.04H398.26V452H394.23V451.04H395.77V446.53C395.77 446.37 395.77 446.2 395.78 446.03L394.58 447.04ZM404.427 452H399.427V451.36L401.917 448.86C402.257 448.52 402.577 448.18 402.837 447.77C403.337 446.87 403.397 445.47 401.977 445.47C401.187 445.47 400.597 446.05 400.657 446.84L399.557 446.64C399.747 445.32 400.667 444.53 402.037 444.53C403.277 444.53 404.297 445.27 404.297 446.61C404.297 447.73 403.527 448.52 402.787 449.26L400.907 451.16C401.217 451.08 401.547 451.02 401.867 451.02H404.427V452ZM410.584 448.31C410.584 450.07 409.944 452.08 407.884 452.08C405.824 452.08 405.194 450.07 405.194 448.31C405.194 446.55 405.824 444.53 407.884 444.53C409.974 444.53 410.584 446.61 410.584 448.31ZM409.444 448.31C409.444 447.28 409.264 445.46 407.884 445.46C406.504 445.46 406.324 447.28 406.324 448.31C406.324 449.34 406.514 451.16 407.884 451.16C409.264 451.16 409.444 449.34 409.444 448.31ZM412.451 447.04L411.841 446.3L413.841 444.59H414.741V451.04H416.131V452H412.101V451.04H413.641V446.53C413.641 446.37 413.641 446.2 413.651 446.03L412.451 447.04Z" fill="#4E5F5F"/>
<path d="M502.47 439H497.47V438.36L499.96 435.86C500.3 435.52 500.62 435.18 500.88 434.77C501.38 433.87 501.44 432.47 500.02 432.47C499.23 432.47 498.64 433.05 498.7 433.84L497.6 433.64C497.79 432.32 498.71 431.53 500.08 431.53C501.32 431.53 502.34 432.27 502.34 433.61C502.34 434.73 501.57 435.52 500.83 436.26L498.95 438.16C499.26 438.08 499.59 438.02 499.91 438.02H502.47V439ZM508.627 435.31C508.627 437.07 507.987 439.08 505.927 439.08C503.867 439.08 503.237 437.07 503.237 435.31C503.237 433.55 503.867 431.53 505.927 431.53C508.017 431.53 508.627 433.61 508.627 435.31ZM507.487 435.31C507.487 434.28 507.307 432.46 505.927 432.46C504.547 432.46 504.367 434.28 504.367 435.31C504.367 436.34 504.557 438.16 505.927 438.16C507.307 438.16 507.487 436.34 507.487 435.31ZM514.384 439H509.384V438.36L511.874 435.86C512.214 435.52 512.534 435.18 512.794 434.77C513.294 433.87 513.354 432.47 511.934 432.47C511.144 432.47 510.554 433.05 510.614 433.84L509.514 433.64C509.704 432.32 510.624 431.53 511.994 431.53C513.234 431.53 514.254 432.27 514.254 433.61C514.254 434.73 513.484 435.52 512.744 436.26L510.864 438.16C511.174 438.08 511.504 438.02 511.824 438.02H514.384V439ZM520.651 437.13H519.631V439H518.671V437.13H515.051V436.33L518.601 431.6H519.631V436.27H520.651V437.13ZM518.671 436.27V433.57C518.671 433.35 518.691 433.12 518.721 432.86L516.241 436.27H518.671ZM502.67 448.31C502.67 450.07 502.03 452.08 499.97 452.08C497.91 452.08 497.28 450.07 497.28 448.31C497.28 446.55 497.91 444.53 499.97 444.53C502.06 444.53 502.67 446.61 502.67 448.31ZM501.53 448.31C501.53 447.28 501.35 445.46 499.97 445.46C498.59 445.46 498.41 447.28 498.41 448.31C498.41 449.34 498.6 451.16 499.97 451.16C501.35 451.16 501.53 449.34 501.53 448.31ZM504.387 449.74C504.477 450.5 505.187 451.15 505.947 451.15C506.697 451.15 507.357 450.65 507.357 449.88C507.357 448.75 506.467 448.62 505.567 448.62V447.82C506.397 447.82 507.227 447.6 507.227 446.62C507.227 445.91 506.777 445.47 506.047 445.47C505.287 445.47 504.667 446.05 504.727 446.84L503.637 446.65C503.827 445.34 504.737 444.53 506.107 444.53C507.227 444.53 508.297 445.18 508.297 446.43C508.297 447.28 507.927 447.84 507.077 448.11C507.957 448.36 508.457 448.92 508.457 449.85C508.457 451.26 507.327 452.09 505.957 452.09C504.607 452.09 503.817 451.48 503.417 450.14L504.387 449.74ZM514.584 448.31C514.584 450.07 513.944 452.08 511.884 452.08C509.824 452.08 509.194 450.07 509.194 448.31C509.194 446.55 509.824 444.53 511.884 444.53C513.974 444.53 514.584 446.61 514.584 448.31ZM513.444 448.31C513.444 447.28 513.264 445.46 511.884 445.46C510.504 445.46 510.324 447.28 510.324 448.31C510.324 449.34 510.514 451.16 511.884 451.16C513.264 451.16 513.444 449.34 513.444 448.31ZM516.451 447.04L515.841 446.3L517.841 444.59H518.741V451.04H520.131V452H516.101V451.04H517.641V446.53C517.641 446.37 517.641 446.2 517.651 446.03L516.451 447.04Z" fill="#4E5F5F"/>
<path d="M606.47 439H601.47V438.36L603.96 435.86C604.3 435.52 604.62 435.18 604.88 434.77C605.38 433.87 605.44 432.47 604.02 432.47C603.23 432.47 602.64 433.05 602.7 433.84L601.6 433.64C601.79 432.32 602.71 431.53 604.08 431.53C605.32 431.53 606.34 432.27 606.34 433.61C606.34 434.73 605.57 435.52 604.83 436.26L602.95 438.16C603.26 438.08 603.59 438.02 603.91 438.02H606.47V439ZM612.627 435.31C612.627 437.07 611.987 439.08 609.927 439.08C607.867 439.08 607.237 437.07 607.237 435.31C607.237 433.55 607.867 431.53 609.927 431.53C612.017 431.53 612.627 433.61 612.627 435.31ZM611.487 435.31C611.487 434.28 611.307 432.46 609.927 432.46C608.547 432.46 608.367 434.28 608.367 435.31C608.367 436.34 608.557 438.16 609.927 438.16C611.307 438.16 611.487 436.34 611.487 435.31ZM618.384 439H613.384V438.36L615.874 435.86C616.214 435.52 616.534 435.18 616.794 434.77C617.294 433.87 617.354 432.47 615.934 432.47C615.144 432.47 614.554 433.05 614.614 433.84L613.514 433.64C613.704 432.32 614.624 431.53 615.994 431.53C617.234 431.53 618.254 432.27 618.254 433.61C618.254 434.73 617.484 435.52 616.744 436.26L614.864 438.16C615.174 438.08 615.504 438.02 615.824 438.02H618.384V439ZM624.651 437.13H623.631V439H622.671V437.13H619.051V436.33L622.601 431.6H623.631V436.27H624.651V437.13ZM622.671 436.27V433.57C622.671 433.35 622.691 433.12 622.721 432.86L620.241 436.27H622.671ZM606.67 448.31C606.67 450.07 606.03 452.08 603.97 452.08C601.91 452.08 601.28 450.07 601.28 448.31C601.28 446.55 601.91 444.53 603.97 444.53C606.06 444.53 606.67 446.61 606.67 448.31ZM605.53 448.31C605.53 447.28 605.35 445.46 603.97 445.46C602.59 445.46 602.41 447.28 602.41 448.31C602.41 449.34 602.6 451.16 603.97 451.16C605.35 451.16 605.53 449.34 605.53 448.31ZM611.707 444.61L609.207 447.71C609.547 447.52 609.937 447.42 610.327 447.42C611.667 447.42 612.517 448.35 612.517 449.63C612.517 451.07 611.367 452.08 609.937 452.08C608.407 452.08 607.437 451.08 607.437 449.51C607.437 448.72 607.857 447.93 608.317 447.31L610.337 444.61H611.707ZM609.917 451.17C610.747 451.17 611.417 450.58 611.417 449.71C611.417 448.83 610.837 448.26 609.957 448.26C609.117 448.26 608.497 448.87 608.497 449.69C608.497 450.55 608.997 451.17 609.917 451.17ZM618.584 448.31C618.584 450.07 617.944 452.08 615.884 452.08C613.824 452.08 613.194 450.07 613.194 448.31C613.194 446.55 613.824 444.53 615.884 444.53C617.974 444.53 618.584 446.61 618.584 448.31ZM617.444 448.31C617.444 447.28 617.264 445.46 615.884 445.46C614.504 445.46 614.324 447.28 614.324 448.31C614.324 449.34 614.514 451.16 615.884 451.16C617.264 451.16 617.444 449.34 617.444 448.31ZM620.451 447.04L619.841 446.3L621.841 444.59H622.741V451.04H624.131V452H620.101V451.04H621.641V446.53C621.641 446.37 621.641 446.2 621.651 446.03L620.451 447.04Z" fill="#4E5F5F"/>
<rect x="44" y="33" width="624" height="387" fill="#EEF1F1" fill-opacity="0.4"/>
<line x1="92.5" y1="331" x2="92.5" y2="420" stroke="#D2DADA" stroke-dasharray="2 2"/>
<line x1="197.5" y1="302" x2="197.5" y2="420" stroke="#D2DADA" stroke-dasharray="2 2"/>
<line x1="301.5" y1="284" x2="301.5" y2="420" stroke="#D2DADA" stroke-dasharray="2 2"/>
<line x1="405.5" y1="252" x2="405.5" y2="420" stroke="#D2DADA" stroke-dasharray="2 2"/>
<line x1="509.5" y1="226" x2="509.5" y2="420" stroke="#D2DADA" stroke-dasharray="2 2"/>
<line x1="613.5" y1="190" x2="613.5" y2="420" stroke="#D2DADA" stroke-dasharray="2 2"/>
<line x1="92.61" y1="329.552" x2="196.61" y2="301.552" stroke="#64D3AB" stroke-width="3"/>
<line x1="197.742" y1="301.522" x2="300.742" y2="283.522" stroke="#64D3AB" stroke-width="3"/>
<line x1="300.555" y1="283.568" x2="403.555" y2="251.568" stroke="#64D3AB" stroke-width="3"/>
<line x1="404.633" y1="251.546" x2="507.633" y2="225.546" stroke="#64D3AB" stroke-width="3"/>
<line x1="507.522" y1="224.578" x2="611.522" y2="189.578" stroke="#64D3AB" stroke-width="3"/>
<circle cx="92.5" cy="330.5" r="4.5" fill="#3CC895"/>
<circle cx="197.5" cy="301.5" r="4.5" fill="#3CC895"/>
<circle cx="301.5" cy="283.5" r="4.5" fill="#3CC895"/>
<circle cx="405.5" cy="250.5" r="4.5" fill="#3CC895"/>
<circle cx="509.5" cy="225.5" r="4.5" fill="#3CC895"/>
<circle cx="613.5" cy="189.5" r="4.5" fill="#3CC895"/>
<line x1="92.5135" y1="356.581" x2="197.514" y2="320.581" stroke="#7E9595" stroke-width="3"/>
<line x1="198.854" y1="319.507" x2="300.854" y2="309.507" stroke="#7E9595" stroke-width="3"/>
<line x1="300.427" y1="309.614" x2="404.427" y2="266.614" stroke="#7E9595" stroke-width="3"/>
<line x1="404.842" y1="266.508" x2="508.842" y2="255.508" stroke="#7E9595" stroke-width="3"/>
<line x1="512.467" y1="254.598" x2="612.467" y2="216.598" stroke="#7E9595" stroke-width="3"/>
<circle cx="92.5" cy="357.5" r="4.5" fill="#657B7B"/>
<circle cx="197.5" cy="320.5" r="4.5" fill="#657B7B"/>
<circle cx="301.5" cy="309.5" r="4.5" fill="#657B7B"/>
<circle cx="405.5" cy="266.5" r="4.5" fill="#657B7B"/>
<circle cx="509.5" cy="255.5" r="4.5" fill="#657B7B"/>
<circle cx="613.5" cy="216.5" r="4.5" fill="#657B7B"/>
<rect x="499" y="1" width="66" height="23" rx="11.5" stroke="#D2DADA"/>
<circle cx="512.5" cy="12.5" r="6.5" fill="#3CC895"/>
<path d="M531.02 9.128H524.624V8.144H527.204V7.028H528.44V8.144H531.02V9.128ZM534.608 11.012H533.072V13.868H531.836V7.088H533.072V9.992H534.608V11.012ZM530.444 11.576C530.444 12.752 529.376 13.544 527.816 13.544C526.256 13.544 525.188 12.752 525.188 11.576C525.188 10.388 526.256 9.596 527.816 9.596C529.376 9.596 530.444 10.388 530.444 11.576ZM526.376 11.576C526.376 12.212 526.952 12.596 527.816 12.596C528.68 12.596 529.268 12.212 529.268 11.576C529.268 10.904 528.68 10.544 527.816 10.544C526.952 10.544 526.376 10.904 526.376 11.576ZM525.944 14.396H533.072V17.924H531.836V15.392H525.944V14.396ZM544.483 11.288C542.695 11.048 541.267 10.256 540.547 9.104C539.827 10.256 538.411 11.048 536.623 11.288L536.167 10.328C538.327 10.04 539.911 8.876 539.911 7.616V7.196H541.183V7.616C541.183 8.876 542.779 10.04 544.927 10.328L544.483 11.288ZM545.455 11.936V12.92H535.639V11.936H545.455ZM542.959 13.592H544.195V17.792H536.851V13.592H538.075V14.696H542.959V13.592ZM542.959 15.644H538.075V16.808H542.959V15.644ZM556.77 12.38H555.078V17.924H553.842V7.088H555.078V11.36H556.77V12.38ZM550.482 10.232C550.482 11.9 551.55 13.844 553.194 14.612L552.51 15.584C551.298 15.008 550.374 13.844 549.882 12.44C549.402 13.952 548.454 15.248 547.194 15.86L546.486 14.876C548.154 14.072 549.246 12.02 549.246 10.232V9.188H546.882V8.168H552.774V9.188H550.482V10.232Z" fill="#202727"/>
<rect x="572" y="1" width="96" height="23" rx="11.5" stroke="#D2DADA"/>
<circle cx="585.5" cy="12.5" r="6.5" fill="#657B7B"/>
<path d="M604.02 9.128H597.624V8.144H600.204V7.028H601.44V8.144H604.02V9.128ZM607.608 11.012H606.072V13.868H604.836V7.088H606.072V9.992H607.608V11.012ZM603.444 11.576C603.444 12.752 602.376 13.544 600.816 13.544C599.256 13.544 598.188 12.752 598.188 11.576C598.188 10.388 599.256 9.596 600.816 9.596C602.376 9.596 603.444 10.388 603.444 11.576ZM599.376 11.576C599.376 12.212 599.952 12.596 600.816 12.596C601.68 12.596 602.268 12.212 602.268 11.576C602.268 10.904 601.68 10.544 600.816 10.544C599.952 10.544 599.376 10.904 599.376 11.576ZM598.944 14.396H606.072V17.924H604.836V15.392H598.944V14.396ZM616.391 11.444H613.511V10.46H616.391V9.392H613.511V8.408H616.391V7.088H617.627V15.092H616.391V11.444ZM614.831 13.196C613.163 13.484 611.711 13.568 610.103 13.568H609.263V7.832H610.499V12.548C611.903 12.536 613.211 12.464 614.711 12.188L614.831 13.196ZM617.903 16.712V17.72H610.595V14.384H611.831V16.712H617.903ZM630.114 11.912H628.542V10.916H630.114V9.932H628.542V8.936H630.114V7.088H631.35V13.748H630.114V11.912ZM628.698 12.836C626.658 13.184 624.258 13.22 622.518 13.22L622.374 12.2H623.646V8.864H622.662V7.856H628.374V8.864H627.402V12.044C627.822 12.032 628.23 11.984 628.626 11.936L628.698 12.836ZM624.834 12.176C625.302 12.164 625.746 12.164 626.214 12.128V8.864H624.834V12.176ZM627.738 13.94C630.006 13.94 631.398 14.66 631.398 15.944C631.398 17.192 630.006 17.924 627.738 17.924C625.47 17.924 624.09 17.192 624.09 15.944C624.09 14.66 625.47 13.94 627.738 13.94ZM627.738 16.976C629.286 16.976 630.162 16.616 630.162 15.944C630.162 15.26 629.286 14.9 627.738 14.9C626.19 14.9 625.326 15.26 625.326 15.944C625.326 16.616 626.19 16.976 627.738 16.976ZM643.229 11.672V12.68H640.637V15.176H639.425V12.68H637.889V15.176H636.677V12.68H633.413V11.672H640.541C640.781 10.424 640.793 9.5 640.793 8.636H634.613V7.628H642.017V8.504C642.017 9.38 642.017 10.376 641.777 11.672H643.229ZM635.753 16.712H642.305V17.72H634.529V14.24H635.753V16.712Z" fill="#202727"/>
<rect width="12" height="13" transform="translate(649 6)" fill="white"/>
<path d="M649 10L653 15L657 10" stroke="#374343" stroke-width="1.5" stroke-linecap="round" stroke-linejoin="round"/>
</svg>
